<mxfile host="www.draw.io" modified="2020-02-03T02:06:14.332Z" agent="Mozilla/5.0 (X11; Linux x86_64) AppleWebKit/537.36 (KHTML, like Gecko) Chrome/79.0.3945.130 Safari/537.36" etag="FAEXuX9pnw0jl0wbModn" version="12.6.4" type="github">
  <diagram id="wvuGmt4WJ4vme1x9Ol3j" name="Page-1">
    <mxGraphModel dx="798" dy="462" grid="1" gridSize="10" guides="1" tooltips="1" connect="1" arrows="1" fold="1" page="1" pageScale="1" pageWidth="827" pageHeight="1169" math="0" shadow="0">
      <root>
        <mxCell id="0"/>
        <mxCell id="1" parent="0"/>
        <mxCell id="dQv-mWrO4q1md8d3--qf-1" value="&lt;font style=&quot;font-size: 27px&quot;&gt;&lt;b&gt;Nginx的请求处理流程&lt;/b&gt;&lt;/font&gt;" style="text;html=1;strokeColor=none;fillColor=none;align=center;verticalAlign=middle;whiteSpace=wrap;rounded=0;" vertex="1" parent="1">
          <mxGeometry x="265" y="60" width="300" height="40" as="geometry"/>
        </mxCell>
        <mxCell id="dQv-mWrO4q1md8d3--qf-5" value="" style="rounded=0;whiteSpace=wrap;html=1;fillColor=#f5f5f5;strokeColor=#666666;fontColor=#333333;" vertex="1" parent="1">
          <mxGeometry x="50" y="110" width="820" height="420" as="geometry"/>
        </mxCell>
        <mxCell id="dQv-mWrO4q1md8d3--qf-6" value="&lt;font style=&quot;font-size: 14px&quot;&gt;WEB、Email以及TCP流量&lt;/font&gt;" style="ellipse;whiteSpace=wrap;html=1;aspect=fixed;fillColor=#fff2cc;strokeColor=#d6b656;" vertex="1" parent="1">
          <mxGeometry x="80" y="190" width="100" height="100" as="geometry"/>
        </mxCell>
        <mxCell id="dQv-mWrO4q1md8d3--qf-8" value="" style="rounded=1;whiteSpace=wrap;html=1;fillColor=#d5e8d4;strokeColor=#82b366;" vertex="1" parent="1">
          <mxGeometry x="210" y="140" width="470" height="350" as="geometry"/>
        </mxCell>
        <mxCell id="dQv-mWrO4q1md8d3--qf-9" value="" style="rounded=1;whiteSpace=wrap;html=1;fillColor=#1ba1e2;strokeColor=#006EAF;fontColor=#ffffff;" vertex="1" parent="1">
          <mxGeometry x="285" y="150" width="320" height="210" as="geometry"/>
        </mxCell>
        <mxCell id="dQv-mWrO4q1md8d3--qf-10" value="&lt;font style=&quot;font-size: 16px&quot;&gt;非阻塞的事件驱动处理引擎&lt;/font&gt;" style="text;html=1;strokeColor=none;fillColor=none;align=center;verticalAlign=middle;whiteSpace=wrap;rounded=0;" vertex="1" parent="1">
          <mxGeometry x="330" y="170" width="230" height="20" as="geometry"/>
        </mxCell>
        <mxCell id="dQv-mWrO4q1md8d3--qf-11" value="&lt;font style=&quot;font-size: 16px&quot; color=&quot;#000000&quot;&gt;&lt;b&gt;&amp;nbsp; 传输层状态机&lt;/b&gt;&lt;/font&gt;" style="rounded=1;whiteSpace=wrap;html=1;fillColor=#e3c800;strokeColor=#B09500;fontColor=#ffffff;align=left;" vertex="1" parent="1">
          <mxGeometry x="270" y="210" width="150" height="60" as="geometry"/>
        </mxCell>
        <mxCell id="dQv-mWrO4q1md8d3--qf-12" value="&lt;font style=&quot;font-size: 16px&quot; color=&quot;#000000&quot;&gt;&lt;b&gt;Mail状态机&amp;nbsp;&amp;nbsp;&lt;/b&gt;&lt;/font&gt;" style="rounded=1;whiteSpace=wrap;html=1;fillColor=#e3c800;strokeColor=#B09500;fontColor=#ffffff;align=right;" vertex="1" parent="1">
          <mxGeometry x="470" y="210" width="150" height="60" as="geometry"/>
        </mxCell>
        <mxCell id="dQv-mWrO4q1md8d3--qf-13" value="&lt;font style=&quot;font-size: 15px&quot; color=&quot;#000000&quot;&gt;&lt;b&gt;HTTP状态机&lt;/b&gt;&lt;/font&gt;" style="rounded=1;whiteSpace=wrap;html=1;fillColor=#e3c800;strokeColor=#B09500;fontColor=#ffffff;" vertex="1" parent="1">
          <mxGeometry x="385" y="200" width="120" height="80" as="geometry"/>
        </mxCell>
        <mxCell id="dQv-mWrO4q1md8d3--qf-15" value="&lt;font style=&quot;font-size: 16px&quot;&gt;使用线程池处理磁盘阻塞调用&lt;/font&gt;" style="text;html=1;strokeColor=none;fillColor=none;align=center;verticalAlign=middle;whiteSpace=wrap;rounded=0;" vertex="1" parent="1">
          <mxGeometry x="330" y="290" width="230" height="20" as="geometry"/>
        </mxCell>
        <mxCell id="dQv-mWrO4q1md8d3--qf-18" value="" style="endArrow=none;html=1;" edge="1" parent="1">
          <mxGeometry width="50" height="50" relative="1" as="geometry">
            <mxPoint x="310" y="320" as="sourcePoint"/>
            <mxPoint x="310" y="350" as="targetPoint"/>
            <Array as="points">
              <mxPoint x="315" y="330"/>
              <mxPoint x="300" y="340"/>
            </Array>
          </mxGeometry>
        </mxCell>
        <mxCell id="dQv-mWrO4q1md8d3--qf-19" value="" style="endArrow=none;html=1;" edge="1" parent="1">
          <mxGeometry width="50" height="50" relative="1" as="geometry">
            <mxPoint x="325" y="320" as="sourcePoint"/>
            <mxPoint x="325" y="350" as="targetPoint"/>
            <Array as="points">
              <mxPoint x="330" y="330"/>
              <mxPoint x="315" y="340"/>
            </Array>
          </mxGeometry>
        </mxCell>
        <mxCell id="dQv-mWrO4q1md8d3--qf-20" value="" style="endArrow=none;html=1;" edge="1" parent="1">
          <mxGeometry width="50" height="50" relative="1" as="geometry">
            <mxPoint x="340" y="320" as="sourcePoint"/>
            <mxPoint x="340" y="350" as="targetPoint"/>
            <Array as="points">
              <mxPoint x="345" y="330"/>
              <mxPoint x="330" y="340"/>
            </Array>
          </mxGeometry>
        </mxCell>
        <mxCell id="dQv-mWrO4q1md8d3--qf-21" value="" style="endArrow=none;html=1;" edge="1" parent="1">
          <mxGeometry width="50" height="50" relative="1" as="geometry">
            <mxPoint x="580" y="320" as="sourcePoint"/>
            <mxPoint x="580" y="350" as="targetPoint"/>
            <Array as="points">
              <mxPoint x="585" y="330"/>
              <mxPoint x="570" y="340"/>
            </Array>
          </mxGeometry>
        </mxCell>
        <mxCell id="dQv-mWrO4q1md8d3--qf-22" value="" style="endArrow=none;html=1;" edge="1" parent="1">
          <mxGeometry width="50" height="50" relative="1" as="geometry">
            <mxPoint x="440" y="320" as="sourcePoint"/>
            <mxPoint x="440" y="350" as="targetPoint"/>
            <Array as="points">
              <mxPoint x="445" y="330"/>
              <mxPoint x="430" y="340"/>
            </Array>
          </mxGeometry>
        </mxCell>
        <mxCell id="dQv-mWrO4q1md8d3--qf-23" value="" style="endArrow=none;html=1;" edge="1" parent="1">
          <mxGeometry width="50" height="50" relative="1" as="geometry">
            <mxPoint x="555" y="320" as="sourcePoint"/>
            <mxPoint x="555" y="350" as="targetPoint"/>
            <Array as="points">
              <mxPoint x="560" y="330"/>
              <mxPoint x="545" y="340"/>
            </Array>
          </mxGeometry>
        </mxCell>
        <mxCell id="dQv-mWrO4q1md8d3--qf-24" value="" style="endArrow=none;html=1;" edge="1" parent="1">
          <mxGeometry width="50" height="50" relative="1" as="geometry">
            <mxPoint x="570" y="320" as="sourcePoint"/>
            <mxPoint x="570" y="350" as="targetPoint"/>
            <Array as="points">
              <mxPoint x="575" y="330"/>
              <mxPoint x="560" y="340"/>
            </Array>
          </mxGeometry>
        </mxCell>
        <mxCell id="dQv-mWrO4q1md8d3--qf-25" value="&lt;font style=&quot;font-size: 16px&quot;&gt;静态资源磁盘缓存&lt;/font&gt;" style="rounded=1;whiteSpace=wrap;html=1;fillColor=#008a00;strokeColor=#005700;fontColor=#ffffff;" vertex="1" parent="1">
          <mxGeometry x="265" y="410" width="155" height="60" as="geometry"/>
        </mxCell>
        <mxCell id="dQv-mWrO4q1md8d3--qf-29" value="&lt;span style=&quot;font-size: 16px&quot;&gt;Access访问日志&lt;br&gt;Error错误日志&lt;br&gt;&lt;/span&gt;" style="rounded=1;whiteSpace=wrap;html=1;fillColor=#008a00;strokeColor=#005700;fontColor=#ffffff;" vertex="1" parent="1">
          <mxGeometry x="460" y="410" width="155" height="60" as="geometry"/>
        </mxCell>
        <mxCell id="dQv-mWrO4q1md8d3--qf-30" value="" style="shape=flexArrow;endArrow=classic;startArrow=classic;html=1;fillColor=#fff2cc;strokeColor=#d6b656;" edge="1" parent="1">
          <mxGeometry width="50" height="50" relative="1" as="geometry">
            <mxPoint x="345" y="410" as="sourcePoint"/>
            <mxPoint x="344.5" y="360" as="targetPoint"/>
          </mxGeometry>
        </mxCell>
        <mxCell id="dQv-mWrO4q1md8d3--qf-31" value="" style="shape=flexArrow;endArrow=classic;startArrow=classic;html=1;fillColor=#fff2cc;strokeColor=#d6b656;" edge="1" parent="1">
          <mxGeometry width="50" height="50" relative="1" as="geometry">
            <mxPoint x="537.5" y="410" as="sourcePoint"/>
            <mxPoint x="537" y="360" as="targetPoint"/>
          </mxGeometry>
        </mxCell>
        <mxCell id="dQv-mWrO4q1md8d3--qf-32" value="&lt;font style=&quot;font-size: 14px&quot;&gt;HTTP、Mail以及stream（tcp）流量&lt;/font&gt;" style="rounded=1;whiteSpace=wrap;html=1;fillColor=#dae8fc;strokeColor=#6c8ebf;" vertex="1" parent="1">
          <mxGeometry x="725" y="162" width="130" height="60" as="geometry"/>
        </mxCell>
        <mxCell id="dQv-mWrO4q1md8d3--qf-33" value="&lt;font style=&quot;font-size: 14px&quot;&gt;FastCGI、uWSGI、SCGI、memcached代理&lt;/font&gt;" style="rounded=1;whiteSpace=wrap;html=1;fillColor=#dae8fc;strokeColor=#6c8ebf;" vertex="1" parent="1">
          <mxGeometry x="725" y="285" width="130" height="60" as="geometry"/>
        </mxCell>
        <mxCell id="dQv-mWrO4q1md8d3--qf-36" value="Text" style="text;html=1;align=center;verticalAlign=middle;resizable=0;points=[];autosize=1;" vertex="1" parent="1">
          <mxGeometry x="802" y="602" width="40" height="20" as="geometry"/>
        </mxCell>
        <mxCell id="dQv-mWrO4q1md8d3--qf-37" value="" style="shape=flexArrow;endArrow=classic;startArrow=classic;html=1;fillColor=#fff2cc;strokeColor=#d6b656;" edge="1" parent="1">
          <mxGeometry width="50" height="50" relative="1" as="geometry">
            <mxPoint x="605" y="190" as="sourcePoint"/>
            <mxPoint x="725" y="190" as="targetPoint"/>
          </mxGeometry>
        </mxCell>
        <mxCell id="dQv-mWrO4q1md8d3--qf-40" value="" style="shape=flexArrow;endArrow=classic;startArrow=classic;html=1;fillColor=#fff2cc;strokeColor=#d6b656;" edge="1" parent="1">
          <mxGeometry width="50" height="50" relative="1" as="geometry">
            <mxPoint x="605" y="314.5" as="sourcePoint"/>
            <mxPoint x="725" y="314.5" as="targetPoint"/>
          </mxGeometry>
        </mxCell>
      </root>
    </mxGraphModel>
  </diagram>
</mxfile>
